<svg version="1" xmlns="http://www.w3.org/2000/svg" width="682.667" height="682.667" viewBox="0 0 512.000000 512.000000"><path d="M235 .6c-13.2 1.5-27.1 3.8-36.5 5.9C104 27.9 27.8 104 6.5 198.4 1.5 220.6.6 229.9.6 256s.9 35.4 5.9 57.6C27.8 408 104 484.2 198.4 505.5c22.2 5 31.5 5.9 57.6 5.9s35.4-.9 57.6-5.9C408 484.2 484.2 408 505.5 313.6c5-22.2 5.9-31.5 5.9-57.6s-.9-35.4-5.9-57.6c-15.8-70-61.9-130.9-126-166.7-25.3-14.2-55-24.1-87-29.2C283 .9 243.1-.4 235 .6zM273 22c58.7 4.6 110.2 28.6 151.1 70.6 12.6 12.9 18.5 20.3 28.2 34.9 13.5 20.5 24.6 45.4 30.6 68.8 11.5 44.8 10.1 90.6-4.2 133.6-3.5 10.5-4.2 12-4.5 9.1-2.4-32.4-15.5-61.4-37.7-83.5-24.3-24.4-56-37.5-90.5-37.5-56.2 0-105.5 36.2-122.4 89.9-7.4 23.6-7.4 52.6 0 76.2 14.6 46.4 55 81.2 102.3 88.4 5.3.8 11.2 1.6 13.1 1.7 2.9.3 1.4 1-9.1 4.5-43.1 14.3-88.7 15.7-133.6 4.2-47-12-91.4-40.8-123.3-79.9-19.3-23.6-36.2-57.1-43.9-87.3-21.3-83.2 2.4-168.2 63.5-227.8 12.9-12.6 20.3-18.5 34.9-28.2C170 31.6 222.2 18.1 273 22zm83 218c12.7 1.2 23.6 4.2 34.6 9.4 12.1 5.8 20.3 11.4 29.6 20.4 27.6 26.7 38.5 66.3 28.8 103.7-1.9 7.1-11.1 28.5-12.3 28.5-.3 0 .4-2.8 1.5-6.3 2.8-8.8 3.4-22.4 1.4-31.7-6.2-29.3-32.7-51-62.6-51-34.9 0-64 29.1-64 64 0 29.9 21.7 56.4 51 62.6 9.3 2 22.9 1.4 31.8-1.4 3.4-1.1 6.2-1.8 6.2-1.5 0 1.2-21.4 10.4-28.5 12.3-24.4 6.3-49.9 4.1-72.1-6.4-12.1-5.8-20.3-11.4-29.6-20.4-32.5-31.4-41.5-80.3-22.3-120.9 17.5-37.1 52.8-60.3 94.5-62.1 1.4-.1 6.8.3 12 .8z"/></svg>