<svg width="983" height="907" xmlns="http://www.w3.org/2000/svg" xmlns:xlink="http://www.w3.org/1999/xlink" overflow="hidden"><defs><clipPath id="clip0"><rect x="0" y="0" width="983" height="907"/></clipPath></defs><g clip-path="url(#clip0)"><rect x="0" y="0" width="983" height="906.526" fill="#FFFFFF"/><path d="M63.5 456.561C63.5 447.012 71.2454 439.27 80.7999 439.27L272.2 439.27C281.754 439.27 289.5 447.012 289.5 456.561L289.5 594.889C289.5 604.439 281.754 612.18 272.2 612.18L80.7999 612.18C71.2454 612.18 63.5 604.439 63.5 594.889Z" stroke="#FFFFFF" stroke-width="1.33379" stroke-miterlimit="8" fill="#2E75B6" fill-rule="evenodd"/><text fill="#FFFFFF" font-family="Microsoft JhengHei,Microsoft JhengHei_MSFontService,sans-serif" font-weight="700" font-size="19" transform="matrix(1 0 0 0.999477 138.632 470)">表單查詢<tspan font-size="19" x="0" y="41.0214">簽核意見</tspan><tspan font-size="19" x="-22.7944" y="81.0424">核准</tspan><tspan font-size="19" x="14.5516" y="81.0424">/</tspan><tspan font-size="19" x="22.7944" y="81.0424">取消核准</tspan><tspan font-size="19" x="-4.1214" y="121.063">退簽</tspan><tspan font-size="19" x="33.2246" y="121.063">/</tspan><tspan font-size="19" x="41.4674" y="121.063">作廢</tspan></text><path d="M311 507.934 335 507.934 335 496.74 359 524.726 335 552.711 335 541.517 311 541.517Z" fill="#B0BCDE" fill-rule="evenodd"/><path d="M379.5 504.436C379.5 501.566 381.828 499.239 384.7 499.239L599.3 499.239C602.172 499.239 604.5 501.566 604.5 504.436L604.5 546.014C604.5 548.885 602.172 551.212 599.3 551.212L384.7 551.212C381.828 551.212 379.5 548.885 379.5 546.014Z" stroke="#FFFFFF" stroke-width="1.33379" stroke-miterlimit="8" fill="#4472C4" fill-rule="evenodd"/><path d="M675 541.517 651 541.517 651 552.711 627 524.726 651 496.74 651 507.934 675 507.934Z" fill="#B0BCDE" fill-rule="evenodd"/><path d="M694.5 456.561C694.5 447.012 702.245 439.27 711.8 439.27L903.2 439.27C912.754 439.27 920.5 447.012 920.5 456.561L920.5 594.889C920.5 604.439 912.754 612.18 903.2 612.18L711.8 612.18C702.245 612.18 694.5 604.439 694.5 594.889Z" stroke="#FFFFFF" stroke-width="1.33379" stroke-miterlimit="8" fill="#2E75B6" fill-rule="evenodd"/><text fill="#FFFFFF" font-family="Microsoft JhengHei,Microsoft JhengHei_MSFontService,sans-serif" font-weight="700" font-size="19" transform="matrix(1 0 0 0.999477 751.003 510)">簽核流程異動<tspan font-size="19" x="14.5516" y="41.0214">代簽</tspan><tspan font-size="19" x="51.8976" y="41.0214">/</tspan><tspan font-size="19" x="60.1404" y="41.0214">加簽</tspan></text><path d="M64.5 260.864C64.5 253.412 70.5441 247.371 78 247.371L276 247.371C283.456 247.371 289.5 253.412 289.5 260.864L289.5 368.807C289.5 376.259 283.456 382.3 276 382.3L78 382.3C70.5441 382.3 64.5 376.259 64.5 368.807Z" stroke="#FFFFFF" stroke-width="1.33379" stroke-miterlimit="8" fill="#8497B0" fill-rule="evenodd"/><text fill="#FFFFFF" font-family="Microsoft JhengHei,Microsoft JhengHei_MSFontService,sans-serif" font-weight="700" font-size="19" transform="matrix(1 0 0 0.999477 120.267 320)">標準流程異動</text><path d="M311 297.844 335 297.844 335 286.85 359 314.336 335 341.821 335 330.827 311 330.827Z" fill="#B0BCDE" fill-rule="evenodd"/><path d="M379.5 298.444C379.5 296.181 381.336 294.346 383.6 294.346L600.4 294.346C602.664 294.346 604.5 296.181 604.5 298.444L604.5 331.227C604.5 333.49 602.664 335.325 600.4 335.325L383.6 335.325C381.336 335.325 379.5 333.49 379.5 331.227Z" stroke="#FFFFFF" stroke-width="1.33379" stroke-miterlimit="8" fill="#4472C4" fill-rule="evenodd"/><path d="M674 330.827 650.5 330.827 650.5 341.821 627 314.336 650.5 286.85 650.5 297.844 674 297.844Z" fill="#B0BCDE" fill-rule="evenodd"/><path d="M694.5 260.864C694.5 253.412 700.544 247.371 708 247.371L906 247.371C913.456 247.371 919.5 253.412 919.5 260.864L919.5 368.807C919.5 376.259 913.456 382.3 906 382.3L708 382.3C700.544 382.3 694.5 376.259 694.5 368.807Z" stroke="#FFFFFF" stroke-width="1.33379" stroke-miterlimit="8" fill="#8497B0" fill-rule="evenodd"/><text fill="#FFFFFF" font-family="Microsoft JhengHei,Microsoft JhengHei_MSFontService,sans-serif" font-weight="700" font-size="19" transform="matrix(1 0 0 0.999477 769.368 280)">表單送簽<tspan font-size="19" x="-9.33655" y="41.0214">表單退簽後</tspan><tspan font-size="19" x="-9.33655" y="81.0424">修改再送簽</tspan></text><path d="M373.5 262.563C373.5 255.276 379.41 249.37 386.7 249.37L597.3 249.37C604.59 249.37 610.5 255.276 610.5 262.563L610.5 368.108C610.5 375.394 604.59 381.301 597.3 381.301L386.7 381.301C379.41 381.301 373.5 375.394 373.5 368.108Z" stroke="#FFFFFF" stroke-width="1.33379" stroke-miterlimit="8" fill="#8497B0" fill-rule="evenodd"/><text fill="#FFFFFF" font-family="Microsoft JhengHei,Microsoft JhengHei_MSFontService,sans-serif" font-weight="700" font-size="19" transform="matrix(1 0 0 0.999477 454.154 301)">標準流程<tspan font-size="19" x="7.61591" y="41.0214">SINGA</tspan></text><path d="M509.2 388.797 509.2 413.284 521 413.284 491.5 437.771 462 413.284 473.8 413.284 473.8 388.797Z" fill="#B0BCDE" fill-rule="evenodd"/><path d="M373.5 460.359C373.5 453.128 379.365 447.266 386.6 447.266L597.4 447.266C604.635 447.266 610.5 453.128 610.5 460.359L610.5 565.104C610.5 572.336 604.635 578.198 597.4 578.198L386.6 578.198C379.365 578.198 373.5 572.336 373.5 565.104Z" stroke="#FFFFFF" stroke-width="1.33379" stroke-miterlimit="8" fill="#2E75B6" fill-rule="evenodd"/><text fill="#FFFFFF" font-family="Microsoft JhengHei,Microsoft JhengHei_MSFontService,sans-serif" font-weight="700" font-size="19" transform="matrix(1 0 0 0.999477 435.481 498)">實際簽核流程<tspan font-size="19" x="26.9825" y="41.0214">SINGB</tspan></text><path d="M509.2 586.693 509.2 611.18 521 611.18 491.5 635.667 462 611.18 473.8 611.18 473.8 586.693Z" fill="#B0BCDE" fill-rule="evenodd"/><path d="M373.5 657.356C373.5 650.07 379.41 644.163 386.7 644.163L597.3 644.163C604.59 644.163 610.5 650.07 610.5 657.356L610.5 762.901C610.5 770.187 604.59 776.094 597.3 776.094L386.7 776.094C379.41 776.094 373.5 770.187 373.5 762.901Z" stroke="#FFFFFF" stroke-width="1.33379" stroke-miterlimit="8" fill="#1F4E79" fill-rule="evenodd"/><text fill="#FFFFFF" font-family="Microsoft JhengHei,Microsoft JhengHei_MSFontService,sans-serif" font-weight="700" font-size="19" transform="matrix(1 0 0 0.999477 454.154 675)">表單查詢<tspan font-size="19" x="-18.673" y="41.0214">表單印表頭銜</tspan><tspan font-size="19" x="0" y="81.0424">（職稱）</tspan><tspan fill="#000000" font-size="19" x="-352.549" y="-433.226">因人員離職、調動</tspan><tspan fill="#000000" font-size="19" x="-316.309" y="-242.127">高階主管</tspan><tspan fill="#000000" font-size="19" x="271.5" y="-243.127">表單送簽者或管理者</tspan><tspan fill="#000000" font-size="19" x="307.74" y="-437.229">表單送簽者</tspan><tspan fill="#000000" font-size="19" x="1.39075" y="-435.227">表制定者</tspan><tspan fill="#000000" font-size="19" x="84.7722" y="-263.138">依照金額或天數</tspan><tspan fill="#000000" font-size="19" x="84.7722" y="-240.126">產生簽核流程</tspan><tspan fill="#000000" font-size="19" x="281.692" y="-37.0193">因人員離職</tspan><tspan fill="#000000" font-size="19" x="375.057" y="-37.0193">/</tspan><tspan fill="#000000" font-size="19" x="383.227" y="-37.0193">調動</tspan><tspan fill="#000000" font-size="19" x="420.573" y="-37.0193">/</tspan><tspan fill="#000000" font-size="19" x="281.692" y="-14.0073">請假或臨時狀況</tspan></text><path d="M376 121.104C376 113.283 382.343 106.944 390.167 106.944L602.833 106.944C610.657 106.944 617 113.283 617 121.104L617 177.74C617 185.56 610.657 191.9 602.833 191.9L390.167 191.9C382.343 191.9 376 185.56 376 177.74Z" fill="#1F4E79" fill-rule="evenodd"/><text fill="#FFFFFF" font-family="Microsoft JhengHei,Microsoft JhengHei_MSFontService,sans-serif" font-weight="700" font-size="19" transform="matrix(1 0 0 0.999477 468.481 156)">各系統</text><path d="M642 129.932 768.187 129.932C784.859 129.932 798.375 143.44 798.375 160.104L798.375 181.655 807 181.655 789.75 198.896 772.5 181.655 781.125 181.655 781.125 160.104C781.125 152.962 775.333 147.173 768.188 147.173L642 147.173Z" fill="#8FAADC" fill-rule="evenodd"/><rect x="31.5" y="68.4642" width="265" height="77.9592" stroke="#2E75B6" stroke-width="1.00034" stroke-linejoin="round" stroke-miterlimit="10" fill="none"/><text font-family="Microsoft JhengHei,Microsoft JhengHei_MSFontService,sans-serif" font-weight="700" font-size="19" transform="matrix(1 0 0 0.999477 40.6367 91)">表單依：公司、組織（專案）<tspan font-size="19" x="0" y="23.012">、員工、年度、月份、類別，</tspan><tspan font-size="19" x="0" y="45.0235">建立簽核流程</tspan></text></g></svg>